<?xml version="1.0" standalone="no"?>
<!DOCTYPE svg PUBLIC "-//W3C//DTD SVG 20010904//EN"
 "http://www.w3.org/TR/2001/REC-SVG-20010904/DTD/svg10.dtd">
<svg version="1.0" xmlns="http://www.w3.org/2000/svg"
 width="700.000000pt" height="700.000000pt" viewBox="0 0 700.000000 700.000000"
 preserveAspectRatio="xMidYMid meet">
<metadata>
Created by potrace 1.14, written by Peter Selinger 2001-2017
</metadata>
<g transform="translate(0.000000,700.000000) scale(0.100000,-0.100000)"
fill="#000000" stroke="none">
<path d="M5305 4873 c-343 -32 -569 -124 -736 -300 -96 -100 -143 -183 -183
-325 -30 -104 -39 -181 -38 -314 5 -369 173 -606 536 -754 55 -22 115 -45 135
-50 147 -38 236 -60 259 -63 15 -3 59 -12 97 -21 99 -24 157 -37 177 -41 135
-27 289 -96 337 -150 48 -56 64 -99 65 -185 1 -171 -101 -268 -329 -315 -49
-10 -274 -13 -355 -5 -257 27 -481 96 -786 240 -57 28 -107 50 -109 50 -3 0
-4 -145 -2 -322 l2 -323 115 -38 c109 -36 266 -80 320 -90 14 -3 57 -12 95
-21 68 -15 105 -21 190 -32 22 -3 51 -7 65 -10 46 -8 234 -17 350 -18 593 -2
964 176 1107 528 59 143 79 265 77 466 -3 352 -139 570 -445 714 -178 84 -276
110 -832 221 -10 2 -52 13 -94 25 -207 57 -286 140 -277 290 9 159 122 249
349 279 74 9 338 7 415 -4 174 -24 395 -86 575 -158 61 -25 112 -43 114 -41 2
2 4 143 5 313 l1 311 -125 29 c-120 28 -256 56 -330 67 -19 3 -60 9 -90 14
-30 5 -84 12 -120 15 -36 3 -83 8 -105 11 -43 6 -380 11 -430 7z"/>
<path d="M756 4818 c-9 -5 -12 -333 -11 -1490 l0 -1483 363 -2 362 -2 1 37 c0
20 1 509 1 1086 0 592 4 1043 9 1034 5 -8 70 -159 145 -334 75 -176 142 -334
150 -351 146 -337 374 -876 374 -884 0 -12 -15 -11 249 -13 221 -1 236 0 253
18 10 11 18 23 18 28 0 7 153 371 195 463 8 17 32 75 55 130 43 105 52 125 94
218 14 32 26 60 26 62 0 3 9 24 20 48 10 23 74 170 140 327 67 157 125 288
128 292 4 4 7 -481 6 -1076 l0 -1084 363 0 363 0 0 1492 0 1491 -487 0 -488
-1 -95 -221 c-53 -122 -104 -241 -114 -265 -10 -24 -29 -67 -42 -96 -13 -29
-24 -55 -24 -58 0 -3 -12 -31 -26 -62 -14 -31 -42 -95 -61 -142 -19 -47 -46
-110 -60 -140 -14 -30 -33 -75 -43 -100 -10 -25 -29 -70 -42 -100 -14 -30 -58
-133 -98 -227 -40 -95 -76 -173 -79 -173 -3 0 -46 96 -95 213 -49 116 -100
235 -112 262 -12 28 -59 138 -104 245 -45 107 -90 213 -100 235 -10 22 -73
171 -141 330 -67 160 -124 292 -126 294 -6 8 -953 7 -967 -1z"/>
</g>
</svg>
